<svg width="597" height="205" viewBox="0 0 597 205" fill="none" xmlns="http://www.w3.org/2000/svg">
<path d="M64.7278 61.4624C60.2918 67.4713 56.6836 73.2607 53.9826 79.6963C52.8194 82.4679 49.4328 88.1292 55.4153 83.6602C84.5296 61.9112 121.959 42.5088 157.853 25.946C164.663 22.8036 174.69 17.5216 182.925 16.1155C190.952 14.7449 176.976 26.0155 176.717 26.2631C125.823 74.8421 76.6028 124.659 28.5522 174.513C27.4428 175.664 11.3445 192.145 17.3295 188.465C39.8274 174.633 60.1828 159.043 81.5619 144.466C111.998 123.714 141.723 102.412 173.613 82.6296C182.771 76.9483 193.737 71.5981 201.908 65.2678C225.327 47.1255 152.827 100.221 128.244 117.67C105.512 133.806 81.6479 150.887 63.5339 169.597C62.1122 171.066 61.2576 172.813 64.0114 170.707C79.0049 159.243 99.4755 149.353 116.544 139.313C155.403 116.456 198.549 91.8778 247.396 78.9035C250.29 78.1349 236.717 88.532 236.412 88.734C214.493 103.289 192.127 117.29 171.702 132.812C151.665 148.04 93.8166 194.632 116.544 181.172C155.658 158.007 198.585 135.499 242.263 116.164C247.724 113.746 253.582 110.614 245.844 115.371C233.966 122.674 222.854 130.069 210.146 136.776C202.287 140.925 198.919 144.285 211.579 139.472C233.111 131.285 253.703 122.067 275.334 113.944C283.338 110.939 293.714 104.94 303.271 104.272C303.284 104.272 286.612 114.21 283.691 115.847C269.675 123.7 255.732 132.068 243.576 141.216C240.062 143.86 234.502 148.121 234.502 151.918C234.502 152.96 237.052 150.706 238.323 150.095C246.896 145.975 255.944 142.251 264.827 138.441C282.782 130.742 300.898 123.2 319.867 116.64C325.501 114.691 335.92 111.248 325.836 117.591C314.094 124.978 300.717 131.175 288.586 138.283C280.029 143.296 278.369 144.239 291.691 140.185C316.713 132.57 340.771 123.185 366.788 117.115C367.281 117 384.286 114.173 383.98 114.579C382.513 116.527 373.241 119.946 371.683 120.683C359.911 126.251 348.33 131.978 336.94 137.886C319.823 146.764 303.831 156.31 287.512 165.792C273.041 174.2 306.409 159.851 306.614 159.767C346.59 143.356 387.36 128.419 429.11 114.103C439.113 110.673 470.2 101.871 459.913 104.907C445.181 109.254 431.47 118.778 418.603 125.043C402.583 132.844 385.794 140.963 371.683 150.333C361.728 156.943 397.021 142.176 409.53 137.886C419.402 134.5 429.318 131.161 439.616 128.373C443.236 127.393 452.707 124.069 450.958 126.391C448.004 130.314 435.827 135.053 431.259 137.411C420.053 143.194 408.674 148.828 397.471 154.614C387.784 159.617 357.695 172.46 369.653 170.628C395.505 166.667 420.498 152.425 444.153 144.704C459.563 139.675 475.214 134.109 491.074 129.721C500.939 126.991 473.407 137.715 464.808 141.929C459.539 144.512 445.097 153.379 449.884 150.412C489.313 125.976 529.711 102.035 568.081 76.8423C570.165 75.474 584.244 66.0586 581.692 67.8047C569.992 75.8092 558.879 84.1958 547.188 92.2222C523.482 108.497 506.889 126.675 492.387 147.003C490.388 149.806 479.773 162.501 488.089 154.217" stroke="white" stroke-width="31" stroke-linecap="round" stroke-linejoin="round"/>
</svg>
