<svg width="48" height="48" viewBox="0 0 48 48" fill="none" xmlns="http://www.w3.org/2000/svg">
<path d="M17.5758 24.239C17.5758 24.0703 17.5682 23.9707 17.5528 23.94C17.5375 23.894 17.4992 23.871 17.4378 23.871C16.1805 23.9783 15.2452 24.2467 14.6318 24.676C14.0338 25.09 13.7348 25.6267 13.7348 26.286C13.7348 26.746 13.8498 27.137 14.0798 27.459C14.3098 27.7657 14.6932 27.919 15.2298 27.919C15.5825 27.919 15.9505 27.85 16.3338 27.712C16.7325 27.574 17.0852 27.3747 17.3918 27.114C17.5145 26.9913 17.5758 26.8687 17.5758 26.746V24.239ZM19.7378 26.516C19.7378 27.0527 19.7838 27.4283 19.8758 27.643C19.9832 27.8577 20.1825 27.965 20.4738 27.965C20.6425 27.965 20.7805 27.9497 20.8878 27.919C20.9952 27.873 21.1485 27.7887 21.3478 27.666C21.3938 27.6353 21.4398 27.6353 21.4858 27.666C21.5472 27.6967 21.5932 27.7427 21.6238 27.804C21.6698 27.85 21.7005 27.9113 21.7158 27.988C21.7312 28.0493 21.7158 28.103 21.6698 28.149C21.0718 28.8697 20.3665 29.23 19.5538 29.23C19.1092 29.23 18.7258 29.115 18.4038 28.885C18.0972 28.6397 17.8672 28.356 17.7138 28.034C17.6832 27.9573 17.6372 27.9497 17.5758 28.011C17.1772 28.3637 16.7095 28.655 16.1728 28.885C15.6515 29.115 14.9922 29.23 14.1948 29.23C13.3208 29.23 12.6462 29 12.1708 28.54C11.6955 28.0647 11.4578 27.3977 11.4578 26.539C11.4578 25.435 11.9715 24.5917 12.9988 24.009C14.0262 23.411 15.5212 23.112 17.4838 23.112C17.5145 23.112 17.5375 23.0737 17.5528 22.997C17.5682 22.9203 17.5758 22.744 17.5758 22.468V21.847C17.5758 21.4637 17.5452 21.1033 17.4838 20.766C17.4225 20.4287 17.3152 20.1373 17.1618 19.892C17.0238 19.6313 16.8245 19.432 16.5638 19.294C16.3032 19.1407 15.9812 19.064 15.5978 19.064C15.0305 19.064 14.5705 19.179 14.2178 19.409C13.8652 19.6237 13.6888 19.9073 13.6888 20.26C13.6888 20.4287 13.7425 20.5973 13.8498 20.766C13.9572 20.9193 14.0108 21.0803 14.0108 21.249C14.0108 21.4637 13.9035 21.6707 13.6888 21.87C13.4742 22.0693 13.2135 22.169 12.9068 22.169C12.4928 22.169 12.1938 22.0617 12.0098 21.847C11.8412 21.617 11.7568 21.341 11.7568 21.019C11.7568 20.6357 11.8642 20.2753 12.0788 19.938C12.2935 19.5853 12.5848 19.2863 12.9528 19.041C13.3208 18.7957 13.7502 18.604 14.2408 18.466C14.7315 18.3127 15.2452 18.236 15.7818 18.236C17.0085 18.236 17.9745 18.5197 18.6798 19.087C19.3852 19.6543 19.7378 20.5973 19.7378 21.916V26.516ZM27.5627 25.504C28.36 25.504 28.9274 25.2433 29.2647 24.722C29.6174 24.2007 29.7937 23.4417 29.7937 22.445C29.7937 21.939 29.763 21.479 29.7017 21.065C29.6557 20.651 29.556 20.2983 29.4027 20.007C29.2494 19.7003 29.0424 19.4703 28.7817 19.317C28.5364 19.1483 28.2144 19.064 27.8157 19.064C27.325 19.064 26.9264 19.1713 26.6197 19.386C26.3284 19.5853 26.0984 19.846 25.9297 20.168C25.761 20.49 25.646 20.8503 25.5847 21.249C25.5234 21.6477 25.4927 22.0387 25.4927 22.422C25.4927 23.434 25.669 24.2007 26.0217 24.722C26.3744 25.2433 26.888 25.504 27.5627 25.504ZM31.5877 20.076C31.8024 20.398 31.9557 20.743 32.0477 21.111C32.155 21.4637 32.2164 21.824 32.2317 22.192C32.2317 22.8667 32.1014 23.4647 31.8407 23.986C31.5954 24.492 31.2504 24.9213 30.8057 25.274C30.3764 25.6267 29.878 25.895 29.3107 26.079C28.7434 26.263 28.1377 26.355 27.4937 26.355C27.3097 26.355 27.072 26.3627 26.7807 26.378C26.4894 26.3933 26.2057 26.424 25.9297 26.47C25.6537 26.516 25.416 26.5927 25.2167 26.7C25.0327 26.792 24.9407 26.93 24.9407 27.114C24.9407 27.252 25.0174 27.367 25.1707 27.459C25.324 27.551 25.508 27.6277 25.7227 27.689C25.9527 27.735 26.175 27.7733 26.3897 27.804C26.6197 27.8193 26.8037 27.827 26.9417 27.827C28.0457 27.9037 29.0347 28.0033 29.9087 28.126C30.7827 28.2333 31.5187 28.4173 32.1167 28.678C32.73 28.9387 33.1977 29.299 33.5197 29.759C33.8417 30.2343 34.0027 30.8477 34.0027 31.599C34.0027 32.2583 33.8724 32.8717 33.6117 33.439C33.351 34.0063 32.96 34.497 32.4387 34.911C31.9174 35.325 31.2734 35.647 30.5067 35.877C29.7554 36.1223 28.8814 36.245 27.8847 36.245C27.0567 36.245 26.2977 36.1683 25.6077 36.015C24.9177 35.877 24.3197 35.6547 23.8137 35.348C23.323 35.0413 22.9397 34.6503 22.6637 34.175C22.403 33.6997 22.2727 33.1323 22.2727 32.473C22.2727 32.0897 22.3264 31.737 22.4337 31.415C22.541 31.1083 22.6867 30.8323 22.8707 30.587C23.0547 30.3417 23.2617 30.1193 23.4917 29.92C23.7217 29.736 23.9594 29.5827 24.2047 29.46C23.852 29.3373 23.53 29.1687 23.2387 28.954C22.9474 28.724 22.8017 28.3637 22.8017 27.873C22.8017 27.5203 22.8784 27.2213 23.0317 26.976C23.2004 26.7307 23.415 26.5313 23.6757 26.378C23.9517 26.2247 24.2507 26.1173 24.5727 26.056C24.91 25.9793 25.2397 25.9333 25.5617 25.918C25.577 25.918 25.5847 25.9103 25.5847 25.895C25.5847 25.8797 25.577 25.872 25.5617 25.872C24.7797 25.5653 24.1664 25.1437 23.7217 24.607C23.277 24.055 23.0547 23.319 23.0547 22.399C23.0547 21.7703 23.1697 21.203 23.3997 20.697C23.6297 20.1757 23.9517 19.7387 24.3657 19.386C24.795 19.018 25.3087 18.7343 25.9067 18.535C26.5047 18.3357 27.164 18.236 27.8847 18.236C28.6974 18.236 29.3414 18.351 29.8167 18.581C30.3074 18.811 30.752 19.11 31.1507 19.478C31.442 19.1867 31.787 18.9413 32.1857 18.742C32.5844 18.5427 33.029 18.443 33.5197 18.443C33.6884 18.443 33.8724 18.4583 34.0717 18.489C34.2864 18.5197 34.478 18.581 34.6467 18.673C34.8307 18.7497 34.9764 18.857 35.0837 18.995C35.2064 19.133 35.2677 19.317 35.2677 19.547C35.2677 19.8077 35.1987 20.0453 35.0607 20.26C34.9227 20.4593 34.6544 20.559 34.2557 20.559C33.9644 20.559 33.7727 20.4977 33.6807 20.375C33.5887 20.2523 33.5197 20.122 33.4737 19.984C33.4277 19.846 33.374 19.7157 33.3127 19.593C33.2514 19.4703 33.1057 19.409 32.8757 19.409C32.6304 19.409 32.385 19.4703 32.1397 19.593C31.8944 19.7157 31.7104 19.8767 31.5877 20.076ZM25.3547 29.713C25.094 29.9277 24.887 30.2343 24.7337 30.633C24.5804 31.0317 24.5037 31.4303 24.5037 31.829C24.5037 32.3963 24.6187 32.887 24.8487 33.301C25.094 33.7303 25.4084 34.083 25.7917 34.359C26.175 34.6503 26.612 34.865 27.1027 35.003C27.6087 35.141 28.1224 35.21 28.6437 35.21C29.1037 35.21 29.533 35.1333 29.9317 34.98C30.3457 34.8267 30.706 34.6197 31.0127 34.359C31.3194 34.0983 31.5647 33.7917 31.7487 33.439C31.9327 33.0863 32.0247 32.703 32.0247 32.289C32.0247 31.7677 31.8484 31.346 31.4957 31.024C31.1584 30.702 30.6907 30.449 30.0927 30.265C29.4947 30.081 28.7894 29.9507 27.9767 29.874C27.164 29.7973 26.29 29.7437 25.3547 29.713ZM36.2405 29.299C35.8878 29.299 35.5812 29.1687 35.3205 28.908C35.0598 28.6473 34.9295 28.3407 34.9295 27.988C34.9295 27.6353 35.0598 27.3287 35.3205 27.068C35.5812 26.8073 35.8878 26.677 36.2405 26.677C36.6238 26.677 36.9382 26.8073 37.1835 27.068C37.4288 27.3287 37.5515 27.6353 37.5515 27.988C37.5515 28.3407 37.4288 28.6473 37.1835 28.908C36.9382 29.1687 36.6238 29.299 36.2405 29.299Z" fill="white"/>
</svg>
