<svg width="113" height="27" viewBox="0 0 113 27" fill="none" xmlns="http://www.w3.org/2000/svg">
<path d="M40.6498 3.08601C34.491 3.08601 28.3322 3.08601 22.1733 3.08601C21.1055 3.08601 12.2631 3.08601 18.4402 3.08601C43.1961 3.08601 68.1265 2.18174 92.8661 3.13326C99.088 3.37257 91.9185 4.24997 90.2671 4.45639C77.7805 6.01722 65.2695 7.87869 53.0305 10.8358C41.3224 13.6646 29.7713 17.1998 18.4402 21.279C16.4176 22.0071 10.974 22.5444 12.5806 23.9725C13.955 25.1941 24.0216 22.8378 24.2998 22.7912C43.5528 19.5624 62.528 14.9303 81.8558 12.1116C90.477 10.8544 99.0544 9.50134 107.515 7.38617C109.81 6.81239 96.5551 5.69812 95.7486 5.68501C80.4883 5.43687 65.1345 5.34164 49.9117 6.53559C42.1597 7.14359 33.3342 6.88369 25.7174 8.61479C19.5105 10.0254 38.4431 9.04008 44.8082 9.04008C54.6795 9.04008 64.5408 8.97938 74.3423 10.316C77.7523 10.7809 84.254 11.9832 75.949 10.6467C52.7097 6.90707 28.7393 5.63775 5.20894 5.63775C-10.2277 5.63775 36.0912 5.28652 51.5184 5.82677C56.9506 6.017 73.0584 7.21809 67.6794 8.00048C59.495 9.19094 50.0181 7.53189 41.784 7.1499C37.1213 6.93359 23.2196 7.40374 27.7966 6.48833C36.2709 4.79347 45.9927 5.66118 54.5427 5.63775C69.183 5.59764 83.9549 5.10336 98.5839 5.82677C98.7804 5.83649 110.723 7.18474 110.02 8.1895C109.026 9.60827 101.471 10.3273 100.994 10.4105C93.3389 11.7443 85.6504 12.8967 77.9809 14.1436C64.7171 16.3 51.4587 17.8599 38.0981 19.2471C36.1114 19.4533 27.5693 20.9482 27.7021 20.9482C38.1653 20.9482 48.6766 19.5312 59.0791 18.5855C70.003 17.5924 102.654 14.1436 91.6847 14.1436" stroke="#ECFF00" stroke-width="5" stroke-linecap="round" stroke-linejoin="round"/>
</svg>
