<svg width="20" height="20" viewBox="0 0 20 20" fill="none" xmlns="http://www.w3.org/2000/svg">
<rect width="20" height="20" fill="#EBFF00"/>
<path d="M13.6882 9.6098L8.48064 5.15975C8.3602 5.05675 8.19941 5 8.02797 5C7.85653 5 7.69575 5.05675 7.5753 5.15975L7.1918 5.48739C6.94225 5.70089 6.94225 6.04788 7.1918 6.26105L11.5648 9.99793L7.18695 13.739C7.0665 13.842 7 13.9793 7 14.1257C7 14.2723 7.0665 14.4096 7.18695 14.5127L7.57045 14.8402C7.69099 14.9433 7.85168 15 8.02312 15C8.19456 15 8.35535 14.9433 8.47579 14.8402L13.6882 10.3861C13.809 10.2828 13.8753 10.1448 13.8749 9.99817C13.8753 9.85094 13.809 9.71305 13.6882 9.6098Z" fill="black"/>
</svg>
