<svg width="488" height="197" viewBox="0 0 488 197" fill="none" xmlns="http://www.w3.org/2000/svg">
<path d="M10.0276 160.284C10.0276 168.147 10.0276 176.009 10.0276 183.871C10.0276 184.635 10.0276 185.399 10.0276 186.163C10.0276 186.253 9.96551 186.497 10.0276 186.432C14.0513 182.221 17.7211 177.686 21.619 173.358C68.4064 121.413 116.196 70.3345 164.827 20.1088C166.039 18.8571 171.474 12.0546 167.186 17.2783C157.416 29.1793 150.101 43.4705 142.251 56.6353C125.823 84.1854 108.949 113.144 98.1764 143.504C95.2014 151.888 114.971 133.878 116.777 132.384C127.052 123.883 138.38 112.586 150.405 106.573C151.061 106.245 149.444 107.681 148.99 108.258C145.169 113.107 141.319 117.882 137.264 122.545C125.231 136.382 113.07 150.112 101.007 163.923C98.2287 167.104 94.2838 174.718 90.7632 177.065C85.2544 180.737 100.924 168.553 105.657 163.923C123.866 146.115 139.542 126.091 155.055 105.966C155.352 105.581 157.924 101.26 155.392 103.001C150.516 106.353 146.878 113.035 143.531 117.76C140.899 121.476 138.483 125.908 135.242 129.149C124.033 140.358 155.124 104.432 164.355 91.5444C168.561 85.6727 186.316 60.6295 190.638 54.4787C193.172 50.8725 201.21 41.2846 203.173 35.6764C204.452 32.0234 193.755 35.8804 192.997 36.2155C180.674 41.6658 168.627 49.3836 159.234 59.0614C156.5 61.8781 161.073 58.7174 161.727 58.1179C166.629 53.6243 171.412 49.7207 176.688 45.6504C179.662 43.3565 182.465 40.9849 185.651 38.9786C187.926 37.5462 180.668 45.6371 180.125 46.2569C169.391 58.5049 161.347 72.6402 154.449 87.2987C154.23 87.7627 151.248 92.6202 152.225 93.2965C156.503 96.2581 171.311 86.1027 174.464 84.4008C183.094 79.7435 191.384 74.6725 199.669 69.4398C201.338 68.3856 210.679 61.3256 209.238 63.1049C194.407 81.4266 180.38 99.6765 168.264 119.984C167.788 120.782 161.341 132.098 166.714 129.756C172.854 127.079 178.705 121.4 183.629 117.153C194.32 107.936 204.622 98.1908 214.63 88.2421C229.26 73.6982 242.839 58.2658 256.413 42.7525C258.699 40.1403 261.449 36.031 256.143 40.3264C242.056 51.7304 227.776 67.7059 218.875 83.7269C218.611 84.2021 215.314 90.223 216.517 90.8704C220.421 92.9727 240.222 73.2021 242.126 71.5963C256.588 59.3956 270.604 46.813 284.448 33.9242C289.039 29.6494 293.763 25.5812 298.6 21.5914C300.025 20.4165 303.798 16.6018 303.048 18.2892C299.71 25.7998 289.443 33.4565 284.313 39.6525C271.625 54.9768 259.276 70.7892 248.056 87.2313C245.173 91.4563 238.352 99.1276 238.352 104.753C238.352 106.589 260.191 92.8337 261.198 92.1509C272.709 84.3463 282.682 74.985 293.613 66.4745C298.047 63.0225 305.116 59.7464 308.17 54.7483C315.757 42.3328 287.196 74.9344 277.17 85.4791C273.922 88.8942 263.548 98.006 267.87 96.127C279.467 91.0844 290.28 80.3198 299.948 72.405C307.854 65.9332 315.277 58.8794 323.333 52.5918C325.121 51.1963 330.906 46.3071 325.624 50.907C309.902 64.601 293.843 80.0259 283.235 98.1488C282.845 98.8143 279.049 104.066 279.596 105.023C281.546 108.436 302.664 95.5182 304.261 94.6444C320.33 85.8546 339.412 75.9373 352.514 62.8354C362.092 53.2571 332.212 80.795 322.592 90.3313C319.466 93.4298 314.192 97.1745 312.281 101.316C310.373 105.449 320.538 97.4107 324.344 94.914C338.172 85.844 351.755 76.5465 364.779 66.3397C375.166 58.2002 387.302 49.677 395.78 39.3829C402.68 31.0034 377.746 51.8557 370.575 60.0049C369.579 61.1362 366.889 63.6733 370.171 62.9701C379.83 60.9004 389.104 54.3953 397.127 48.9526C402.707 45.1677 407.853 40.738 413.706 37.3612C416.657 35.6585 418.909 33.3898 413.436 36.822C401.252 44.4632 389.764 53.3432 378.527 62.2962C377.509 63.1076 358.987 76.535 366.666 72.8094C393.02 60.0237 416.108 40.2281 439.787 23.2088C450.524 15.4915 418.74 39.2475 408.719 47.8743C404.507 51.5 400.83 55.2844 397.127 59.3984C396.67 59.907 394.225 63.4462 396.319 61.3527C398.669 59.0028 396.694 52.7952 394.297 51.3787C380.7 43.344 357.591 58.307 345.37 63.0375C336.356 66.5271 339.583 62.7012 343.888 56.6353C352.987 43.8134 362.885 31.5462 371.653 18.4914C371.663 18.4768 377.804 10 375.495 10C367.978 10 358.55 17.1863 352.649 20.9849C332.517 33.9429 317.871 50.4306 301.7 67.5528C288.1 81.9529 315.481 69.8137 320.301 67.8224C345.182 57.5406 368.736 43.9998 392.949 32.2394C397.553 30.0031 394.324 32.5628 392.343 34.5981C383.394 43.7886 376.331 54.7952 369.294 65.4636C365.946 70.5403 348.547 95.7291 362.892 96.9357C382.111 98.5523 401.093 92.3174 417.21 82.2443C419.155 81.0289 425.047 77.6104 422.871 78.3355C419.86 79.3391 417.338 84.0783 415.188 86.2878C414.24 87.2622 410.444 90.7446 414.649 88.1748C424.768 81.9913 434.478 74.3317 443.628 66.8115C446.749 64.246 458.678 56.8623 459.532 52.5918C459.718 51.6657 441.535 58.6655 440.663 59.1962C431.176 64.9708 422.459 72.5366 414.043 79.7507C403.378 88.8919 423.688 69.9909 424.623 69.1028C434.773 59.4659 444.677 49.9575 454.006 39.5177C455.421 37.935 467.387 28.0011 465.867 24.961C463.801 20.8288 448.094 34.3237 446.256 35.8785C442.794 38.8081 459.592 33.0859 461.959 31.9698C473.645 26.4574 458.169 44.4864 455.961 47.2678C455.518 47.8258 450.481 52.6434 452.658 53.2657C457.079 54.5286 463.055 53.593 467.619 53.5353C470.707 53.4962 473.78 52.457 476.785 52.457C481.264 52.457 470.517 58.8591 467.35 62.0266C461.791 67.5859 456.284 73.2407 452.793 80.2225" stroke="#F8FFA8" stroke-width="20" stroke-linecap="round" stroke-linejoin="round"/>
</svg>
