<svg width="20" height="20" viewBox="0 0 20 20" fill="none" xmlns="http://www.w3.org/2000/svg">
<rect width="20" height="20" fill="#EBFF00"/>
<path d="M13.7393 13.3141C14.5228 12.4312 15 11.2705 15 10C15 8.6781 14.4834 7.47534 13.6428 6.58034V6.58017C13.6421 6.57914 13.641 6.57879 13.6405 6.57793C12.7648 5.64707 11.5379 5.05121 10.1733 5.00448L10.1731 5.00431L10.0757 5.00172C10.0505 5.00086 10.0253 5 10 5C9.97466 5 9.94948 5.00086 9.92431 5.00172L9.82724 5.00431L9.82707 5.00448C8.46241 5.05121 7.23552 5.64707 6.35983 6.57793C6.35914 6.57879 6.3581 6.57914 6.35759 6.58017C6.35759 6.58017 6.35759 6.58034 6.35741 6.58052C5.51655 7.47534 5 8.6781 5 10C5 11.2705 5.47724 12.4312 6.26069 13.3141C6.26172 13.3157 6.26172 13.3174 6.26293 13.319C6.26603 13.3233 6.27052 13.3253 6.27379 13.3293C7.15414 14.3134 8.41724 14.9474 9.8269 14.9957L9.82707 14.9959L9.92414 14.9984C9.94948 14.9991 9.97466 15 10 15C10.0253 15 10.0505 14.9991 10.0757 14.9983L10.1728 14.9957L10.1729 14.9955C11.5841 14.9471 12.8486 14.3119 13.729 13.3257C13.7312 13.3228 13.7348 13.3219 13.7369 13.3188C13.7383 13.3174 13.7383 13.3157 13.7393 13.3141ZM5.34914 10.1724H7.41862C7.4381 10.9033 7.58086 11.6134 7.835 12.2788C7.34466 12.4562 6.87586 12.6941 6.43655 12.991C5.79052 12.2226 5.38845 11.2431 5.34914 10.1724ZM6.53069 6.90052C6.95966 7.17948 7.41638 7.40293 7.89276 7.56983C7.60103 8.27793 7.43966 9.04138 7.41862 9.82759H5.34914C5.39034 8.70569 5.82966 7.68414 6.53069 6.90052ZM14.6509 9.82759H12.5814C12.5603 9.04138 12.399 8.27793 12.1072 7.56983C12.5836 7.40293 13.0403 7.17948 13.4693 6.90052C14.1703 7.68414 14.6097 8.70569 14.6509 9.82759ZM9.82759 7.57983C9.32914 7.56569 8.83983 7.49138 8.36707 7.35862C8.71655 6.64172 9.21 5.99466 9.82759 5.45586V7.57983ZM9.82759 7.92466V9.82759H7.76345C7.78466 9.07793 7.9419 8.35086 8.2231 7.67672C8.74138 7.8269 9.27948 7.91 9.82759 7.92466ZM10.1724 7.92466C10.7205 7.91 11.2586 7.82707 11.7771 7.67672C12.0583 8.35086 12.2155 9.07793 12.2367 9.82759H10.1724V7.92466ZM10.1724 7.57983V5.45586C10.79 5.99466 11.2834 6.64172 11.6329 7.35862C11.1602 7.49138 10.6709 7.56569 10.1724 7.57983ZM11.9671 7.25379C11.6359 6.55983 11.1762 5.92759 10.6071 5.38569C11.6167 5.51776 12.5252 5.97431 13.2248 6.64741C12.8276 6.89948 12.4062 7.10224 11.9671 7.25379ZM8.03293 7.25379C7.59379 7.10224 7.17241 6.89948 6.77534 6.64741C7.47483 5.97431 8.38345 5.51776 9.3931 5.38569C8.82379 5.92759 8.36414 6.55983 8.03293 7.25379ZM7.76345 10.1724H9.82759V11.9031C9.25741 11.9183 8.69879 12.0072 8.1619 12.1688C7.91931 11.5386 7.78293 10.8653 7.76345 10.1724ZM9.82759 12.2479V14.5441C9.16655 13.9674 8.64828 13.2667 8.29586 12.4895C8.79017 12.3438 9.30362 12.2628 9.82759 12.2479ZM10.1724 14.5441V12.2479C10.6964 12.2626 11.2098 12.3438 11.7041 12.4893C11.3517 13.2667 10.8334 13.9674 10.1724 14.5441ZM10.1724 11.9031V10.1724H12.2366C12.2171 10.8653 12.0807 11.5386 11.8379 12.169C11.3012 12.0072 10.7426 11.9183 10.1724 11.9031ZM12.5814 10.1724H14.6509C14.6116 11.2431 14.2097 12.2226 13.5634 12.991C13.1241 12.6941 12.6553 12.4562 12.165 12.2788C12.4193 11.6134 12.5619 10.9033 12.5814 10.1724ZM6.67086 13.2493C7.07879 12.9783 7.5131 12.7603 7.9669 12.5974C8.30224 13.3491 8.78362 14.0341 9.39293 14.6143C8.33241 14.4755 7.38328 13.979 6.67086 13.2493ZM10.6071 14.6143C11.2164 14.0343 11.6978 13.3493 12.0331 12.5974C12.4869 12.7603 12.921 12.9783 13.3291 13.2493C12.6167 13.979 11.6676 14.4755 10.6071 14.6143Z" fill="black"/>
</svg>
